<svg width="24" height="24" viewBox="0 0 24 24" fill="none" xmlns="http://www.w3.org/2000/svg">
<path d="M6.51611 6V5C6.51611 3.895 7.41111 3 8.51611 3H15.4851C16.5901 3 17.4851 3.895 17.4851 5V6" fill="#D6D6FA"/>
<path d="M6.51611 6V5C6.51611 3.895 7.41111 3 8.51611 3H15.4851C16.5901 3 17.4851 3.895 17.4851 5V6" stroke="#4747EB" stroke-width="1.5" stroke-linecap="round" stroke-linejoin="round"/>
<path d="M4.78223 9V8C4.78223 6.895 5.67723 6 6.78223 6H17.2172C18.3222 6 19.2172 6.895 19.2172 8V9" fill="#D6D6FA"/>
<path d="M4.78223 9V8C4.78223 6.895 5.67723 6 6.78223 6H17.2172C18.3222 6 19.2172 6.895 19.2172 8V9" stroke="#4747EB" stroke-width="1.5" stroke-linecap="round" stroke-linejoin="round"/>
<path d="M18.954 21H5.04602C3.94102 21 3.04602 20.105 3.04602 19V11C3.04602 9.895 3.94102 9 5.04602 9H18.954C20.059 9 20.954 9.895 20.954 11V19C20.954 20.105 20.058 21 18.954 21Z" fill="#D6D6FA" stroke="#4747EB" stroke-width="1.5" stroke-linecap="round" stroke-linejoin="round"/>
<path d="M14.9 14.9H9.09998" stroke="#4747EB" stroke-width="1.5" stroke-linecap="round" stroke-linejoin="round"/>
</svg>
