<svg width="24" height="24" viewBox="0 0 24 24" fill="none" xmlns="http://www.w3.org/2000/svg">
<path d="M6.944 5.14301H5.056C4.473 5.14301 4 5.61601 4 6.19901V13.587C4 14.17 4.473 14.643 5.056 14.643H6.944C7.527 14.643 8 14.17 8 13.587V6.19901C8 5.61601 7.527 5.14301 6.944 5.14301V5.14301Z" stroke="#364259" stroke-width="1.5" stroke-linecap="round" stroke-linejoin="round"/>
<path d="M8 13.571L11.649 18.322C12.328 19.207 13.654 19.229 14.363 18.368C14.628 18.047 14.772 17.643 14.772 17.227V13.956H17.868C18.469 13.956 19.03 13.656 19.364 13.157L19.693 12.666C19.988 12.225 20.074 11.676 19.927 11.167L18.568 6.445C18.346 5.674 17.641 5.143 16.839 5.143H10.55C10.05 5.143 9.572 5.351 9.232 5.717L8 7.043" stroke="#364259" stroke-width="1.5" stroke-linecap="round" stroke-linejoin="round"/>
</svg>
