<svg width="24" height="24" viewBox="0 0 24 24" fill="none" xmlns="http://www.w3.org/2000/svg">
<path d="M17.0442 6.956C15.4972 5.759 13.7482 5 12.0002 5C8.50524 5 5.01024 8.033 3.11824 11.533C2.96124 11.824 2.96124 12.177 3.11824 12.468C4.06424 14.217 5.41024 15.849 6.95624 17.045" fill="#D6D6FA"/>
<path d="M17.0442 6.956C15.4972 5.759 13.7482 5 12.0002 5C8.50524 5 5.01024 8.033 3.11824 11.533C2.96124 11.824 2.96124 12.177 3.11824 12.468C4.06424 14.217 5.41024 15.849 6.95624 17.045" stroke="#4747EB" stroke-width="1.5" stroke-linecap="round" stroke-linejoin="round"/>
<path d="M12 19C11.158 19 10.315 18.822 9.496 18.505" stroke="#4747EB" stroke-width="1.5" stroke-linecap="round" stroke-linejoin="round"/>
<path d="M20.882 12.468C18.99 15.967 15.495 19 12 19" stroke="#4747EB" stroke-width="1.5" stroke-linecap="round" stroke-linejoin="round"/>
<path d="M19.079 8.92099C19.77 9.72999 20.384 10.612 20.882 11.533C21.039 11.824 21.039 12.177 20.882 12.468" stroke="#4747EB" stroke-width="1.5" stroke-linecap="round" stroke-linejoin="round"/>
<path d="M9.77299 14.227C8.54299 12.997 8.54299 11.002 9.77299 9.77199C11.003 8.54199 12.998 8.54199 14.228 9.77199" fill="#D6D6FA"/>
<path d="M9.77299 14.227C8.54299 12.997 8.54299 11.002 9.77299 9.77199C11.003 8.54199 12.998 8.54199 14.228 9.77199" stroke="#4747EB" stroke-width="1.5" stroke-linecap="round" stroke-linejoin="round"/>
<path d="M5 19L19 5" stroke="#4747EB" stroke-width="1.5" stroke-linecap="round" stroke-linejoin="round"/>
</svg>
