<svg width="18" height="18" viewBox="0 0 18 18" fill="none" xmlns="http://www.w3.org/2000/svg">
<path d="M10.7678 7.2322C11.7441 8.20851 11.7441 9.79142 10.7678 10.7677C9.79145 11.744 8.20854 11.744 7.23223 10.7677C6.25592 9.79142 6.25592 8.20851 7.23223 7.2322C8.20854 6.25589 9.79145 6.25589 10.7678 7.2322Z" stroke="#5A6987" stroke-width="1.5" stroke-linecap="round" stroke-linejoin="round"/>
<path d="M11.8492 1.12L12.4322 1.314C12.9662 1.492 13.3272 1.992 13.3272 2.555V3.392C13.3272 4.104 13.8952 4.685 14.6072 4.7L15.4452 4.718C15.9302 4.728 16.3702 5.007 16.5872 5.441L16.8622 5.991C17.1142 6.495 17.0152 7.103 16.6172 7.501L16.0252 8.093C15.5222 8.596 15.5132 9.409 16.0052 9.923L16.5852 10.529C16.9212 10.88 17.0352 11.387 16.8812 11.848L16.6872 12.431C16.5092 12.965 16.0092 13.326 15.4462 13.326H14.6092C13.8972 13.326 13.3162 13.894 13.3012 14.606L13.2832 15.444C13.2732 15.929 12.9942 16.369 12.5602 16.586L12.0102 16.861C11.5062 17.113 10.8982 17.014 10.5002 16.616L9.90815 16.024C9.40515 15.521 8.59215 15.512 8.07815 16.004L7.47215 16.584C7.12115 16.92 6.61415 17.034 6.15315 16.88L5.57015 16.686C5.03615 16.508 4.67515 16.008 4.67515 15.445V14.608C4.67515 13.896 4.10715 13.315 3.39515 13.3L2.55715 13.282C2.07215 13.272 1.63215 12.993 1.41515 12.559L1.14015 12.009C0.888152 11.505 0.987153 10.897 1.38515 10.499L1.97715 9.907C2.48015 9.404 2.48915 8.591 1.99715 8.077L1.41715 7.471C1.08015 7.119 0.966152 6.611 1.12015 6.151L1.31415 5.568C1.49215 5.034 1.99215 4.673 2.55515 4.673H3.39215C4.10415 4.673 4.68515 4.105 4.70015 3.393L4.71815 2.555C4.73015 2.07 5.00815 1.63 5.44215 1.413L5.99215 1.138C6.49615 0.886001 7.10415 0.985001 7.50215 1.383L8.09415 1.975C8.59715 2.478 9.41015 2.487 9.92415 1.995L10.5302 1.415C10.8812 1.08 11.3892 0.966001 11.8492 1.12V1.12Z" stroke="#5A6987" stroke-width="1.5" stroke-linecap="round" stroke-linejoin="round"/>
</svg>
