<svg width="40" height="40" viewBox="0 0 40 40" fill="none" xmlns="http://www.w3.org/2000/svg">
<path d="M21.5999 28H18.3999" stroke="#364259" stroke-width="1.5" stroke-linecap="round" stroke-linejoin="round"/>
<path d="M25 18.032V18C25 15.239 22.761 13 20 13C17.239 13 15 15.239 15 18V18.032V20.504C15 20.828 14.817 21.123 14.528 21.268L14.025 21.519C13.397 21.834 13 22.476 13 23.178C13 24.202 13.83 25.032 14.854 25.032H25.146C26.17 25.032 27 24.202 27 23.178C27 22.476 26.603 21.834 25.975 21.52L25.472 21.269C25.183 21.123 25 20.828 25 20.504V18.032V18.032Z" stroke="#364259" stroke-width="1.5" stroke-linecap="round" stroke-linejoin="round"/>
</svg>
