<svg width="24" height="24" viewBox="0 0 24 24" fill="none" xmlns="http://www.w3.org/2000/svg">
<path d="M18.9539 21H5.0459C3.9409 21 3.0459 20.105 3.0459 19V11C3.0459 9.895 3.9409 9 5.0459 9H18.9539C20.0589 9 20.9539 9.895 20.9539 11V19C20.9539 20.105 20.0579 21 18.9539 21Z" stroke="#5A6987" stroke-width="1.5" stroke-linecap="round" stroke-linejoin="round"/>
<path d="M6.51611 6V5C6.51611 3.895 7.41111 3 8.51611 3H15.4851C16.5901 3 17.4851 3.895 17.4851 5V6" stroke="#5A6987" stroke-width="1.5" stroke-linecap="round" stroke-linejoin="round"/>
<path d="M4.78223 9V8C4.78223 6.895 5.67723 6 6.78223 6H17.2172C18.3222 6 19.2172 6.895 19.2172 8V9" stroke="#5A6987" stroke-width="1.5" stroke-linecap="round" stroke-linejoin="round"/>
<path d="M14.9001 14.9H9.1001" stroke="#5A6987" stroke-width="1.5" stroke-linecap="round" stroke-linejoin="round"/>
</svg>
